<svg id="レイヤー_1" data-name="レイヤー 1" xmlns="http://www.w3.org/2000/svg" viewBox="0 0 172 88"><defs><style>.cls-1{fill:#fff;}</style></defs><title>アートボード 1</title><path class="cls-1" d="M14.91.86v.57a6,6,0,0,0-2.44.34,2.25,2.25,0,0,0-1.6,1.33,21.28,21.28,0,0,0-.25,4.14V50.17a18.62,18.62,0,0,0,.29,4.28A2.57,2.57,0,0,0,12,55.74a5.91,5.91,0,0,0,2.9.51v.59H0v-.57c1.88,0,3-.37,3.49-1.08s.68-2.37.68-4.92V7.74q0-4-.76-5.23C2.9,1.69,1.77,1.33,0,1.43V.86Z"/><path class="cls-1" d="M17.93,56.84v-.57c1.75,0,2.87-.33,3.4-1a5.57,5.57,0,0,0,.77-3.38V6.1a7.54,7.54,0,0,0-.6-3.51c-.4-.72-1.62-1.1-3.66-1.16V.86h15v.57A6,6,0,0,0,29.93,2a2.55,2.55,0,0,0-1.1,1.26,12,12,0,0,0-.27,3.27V45.77q0,5.06,2.43,7.12C32.6,54.27,35.37,55,39.29,55H46.1c3.29,0,5.7-.8,7.23-2.42s2.38-4.68,2.55-9.17h.58V56.84Z"/><path class="cls-1" d="M89.11,0q11.76,0,19.21,7.17A23.71,23.71,0,0,1,115.8,25q0,13.76-8.66,23.22T84.22,57.69q-11.61,0-19-7.6a25.18,25.18,0,0,1-7.4-18.23,34.45,34.45,0,0,1,3.57-14.74A29.72,29.72,0,0,1,89.11,0m-.23,54.72a23.3,23.3,0,0,0,11.38-3.1,23,23,0,0,0,8.85-8.54,21.61,21.61,0,0,0,3.23-11.16A26.46,26.46,0,0,0,108,17.16,30.94,30.94,0,0,0,96.72,6.75Q89.81,3,83.91,3A21.67,21.67,0,0,0,68.83,9.26a20.31,20.31,0,0,0-6.78,15.58,29.92,29.92,0,0,0,8.28,20.9q8.24,9,18.55,9"/><path class="cls-1" d="M115.47,56.84v-.57q2.63,0,3.39-1a5.58,5.58,0,0,0,.79-3.38V6.1A7.54,7.54,0,0,0,119,2.59c-.41-.72-1.62-1.1-3.66-1.16V.86h15v.57a6,6,0,0,0-2.92.53,2.58,2.58,0,0,0-1.09,1.26,12,12,0,0,0-.27,3.27V45.77c0,3.37.82,5.74,2.43,7.12s4.4,2.11,8.31,2.11h6.82q4.92,0,7.22-2.42t2.56-9.17H154V56.84Z"/><path class="cls-1" d="M172,.86v.57a6,6,0,0,0-2.45.34A2.19,2.19,0,0,0,168,3.1a20.52,20.52,0,0,0-.25,4.14V50.17a18.07,18.07,0,0,0,.28,4.28,2.67,2.67,0,0,0,1.1,1.29,5.93,5.93,0,0,0,2.91.51v.59H157.09v-.57c1.83,0,3-.37,3.48-1.08s.69-2.37.69-4.92V7.74q0-4-.76-5.23c-.5-.82-1.65-1.18-3.41-1.08V.86Z"/><path class="cls-1" d="M64.17,69.43A12.84,12.84,0,0,0,64,72V85.4a13.34,13.34,0,0,0,.2,2.6H62.5a13.34,13.34,0,0,0,.2-2.6V78.75H50.8V85.4A13.34,13.34,0,0,0,51,88H49.32a12.61,12.61,0,0,0,.2-2.6V72a13.34,13.34,0,0,0-.2-2.6H51A12.79,12.79,0,0,0,50.79,72v5.6h11.9v-5.5a14.17,14.17,0,0,0-.2-2.6Z"/><path class="cls-1" d="M75.63,82,74.21,85.5a14.56,14.56,0,0,0-.8,2.5H71.58a16.59,16.59,0,0,0,1.35-2.82l5.6-13.49a16.39,16.39,0,0,0,.8-2.26H81a15.4,15.4,0,0,0,.85,2.26l5.63,13.49A19.77,19.77,0,0,0,88.82,88H86.91a19.62,19.62,0,0,0-.79-2.5L84.72,82Zm5.15-9.81c-.1-.23-.21-.52-.6-1.71-.25.68-.43,1.2-.55,1.55,0,.08,0,.13,0,.16l-3.47,8.64h8.14Z"/><path class="cls-1" d="M97.89,69.43a13.34,13.34,0,0,0-.2,2.6V85.4a13.34,13.34,0,0,0,.2,2.6H96.22a13.34,13.34,0,0,0,.2-2.6V72a13.34,13.34,0,0,0-.2-2.6Z"/><path class="cls-1" d="M119.48,88a16.37,16.37,0,0,0-1.56-4.4c-1.59-3.5-2.52-4.43-4.57-4.43h-5.07V85.4a13.34,13.34,0,0,0,.2,2.6H106.8a12.62,12.62,0,0,0,.21-2.6V72a17.06,17.06,0,0,0-.21-2.67c.86,0,1.51.07,2.53.07h5.26c3.58,0,5.49,1.6,5.49,4.58a4.52,4.52,0,0,1-1.69,3.78,5.78,5.78,0,0,1-2.58,1c1,.31,1.62,1,2.51,2.75.78,1.53,1.36,2.75,2,4.15A17.71,17.71,0,0,0,121.42,88Zm-4.83-10c2.48,0,4.1-1.52,4.1-3.85s-1.4-3.56-3.92-3.56h-6.52V78Z"/></svg>