<svg id="レイヤー_1" data-name="レイヤー 1" xmlns="http://www.w3.org/2000/svg" viewBox="0 0 30 20"><defs><style>.cls-1{fill:#fff;}</style></defs><title>numlabel_3</title><path id="パス_13" data-name="パス 13" class="cls-1" d="M13.59,7.11A7.19,7.19,0,0,0,12.47,3,3.52,3.52,0,0,0,9.42,1.32,4,4,0,0,0,6.2,2.84,5.69,5.69,0,0,0,4.92,6.63a7.12,7.12,0,0,0,1.14,4,3.52,3.52,0,0,0,3.1,1.75A4.08,4.08,0,0,0,12.36,11,5.66,5.66,0,0,0,13.59,7.11ZM2.42,6.76a6.46,6.46,0,0,1,2-4.8A6.67,6.67,0,0,1,9.24,0a6.73,6.73,0,0,1,4.84,2,6.49,6.49,0,0,1,2,4.8,6.73,6.73,0,0,1-2,4.88,6.5,6.5,0,0,1-4.83,2,6.48,6.48,0,0,1-4.84-2.06A6.81,6.81,0,0,1,2.42,6.76Zm16.1-3.52c0-.45.5-1.1,1.5-2A4.85,4.85,0,0,1,23.12,0a3.52,3.52,0,0,1,2.55.92,2.93,2.93,0,0,1,.94,2.19,5.29,5.29,0,0,1-3,4.77c-.1.08-.09.15,0,.19a3.9,3.9,0,0,1,3,1.1,3.43,3.43,0,0,1,1,2.35q0,4.52-5.25,7.1a5,5,0,0,1-2.2.67q-.87,0-.87-.45a1,1,0,0,1,.29-.62.81.81,0,0,1,.58-.34,4.88,4.88,0,0,0,2.14-.32,6,6,0,0,0,2.16-1.77,5.38,5.38,0,0,0,.72-3.11A4.21,4.21,0,0,0,25,11.4a2.63,2.63,0,0,0-.83-1.19,2.58,2.58,0,0,0-1.75-.57A2.61,2.61,0,0,0,21,10c-.2.11-.4.22-.61.32s-.55-.1-.55-.29a1,1,0,0,1,.34-.55,5.48,5.48,0,0,1,1.1-.81,13.88,13.88,0,0,0,1.92-1.49,4.19,4.19,0,0,0,1.16-3.26,2.13,2.13,0,0,0-.56-1.52,2,2,0,0,0-1.52-.6,3.24,3.24,0,0,0-1.62.39,4.65,4.65,0,0,0-1.14.93c-.32.36-.58.54-.8.54s-.22-.13-.22-.38Z"/></svg>