<svg id="レイヤー_1" data-name="レイヤー 1" xmlns="http://www.w3.org/2000/svg" viewBox="0 0 30 20"><defs><style>.cls-1{fill:#fff;}</style></defs><title>numlabel_2</title><path id="パス_12" data-name="パス 12" class="cls-1" d="M12.1,7.11A7.19,7.19,0,0,0,11,3,3.52,3.52,0,0,0,7.93,1.32,4,4,0,0,0,4.71,2.84,5.68,5.68,0,0,0,3.43,6.63a7.2,7.2,0,0,0,1.14,4,3.52,3.52,0,0,0,3.1,1.75A4.08,4.08,0,0,0,10.87,11,5.66,5.66,0,0,0,12.1,7.11ZM.94,6.76a6.39,6.39,0,0,1,2-4.8A6.63,6.63,0,0,1,7.76,0a6.72,6.72,0,0,1,4.83,2,6.49,6.49,0,0,1,2,4.8,6.73,6.73,0,0,1-2,4.88,6.48,6.48,0,0,1-4.83,2,6.51,6.51,0,0,1-4.83-2.06A6.77,6.77,0,0,1,.94,6.76ZM27.5,13.35l-2.08-.07q-2.12-.06-3.21-.06c-1.81,0-3.31,0-4.51.06l-.9,0c-.15,0-.22-.09-.22-.26a.57.57,0,0,1,.22-.38c.86-.86,1.51-1.47,2-1.83q4.35-3.55,4.35-6.17a2.73,2.73,0,0,0-.58-1.81A1.86,1.86,0,0,0,21,2.18a4.75,4.75,0,0,0-3.71,1.54.6.6,0,0,1-.43.22c-.14,0-.21-.09-.21-.28A1.4,1.4,0,0,1,16.86,3a4.65,4.65,0,0,1,.6-.87,8.58,8.58,0,0,1,1-1A5.3,5.3,0,0,1,22,0a2.92,2.92,0,0,1,2.4,1.17,4.29,4.29,0,0,1,.94,2.75A5.07,5.07,0,0,1,24,7.11q-1,1.12-2.1,2.16c-1,.93-1.54,1.45-1.71,1.58s-.15.21.11.26l.12,0h5a3.09,3.09,0,0,0,1.71-.54,3.69,3.69,0,0,0,1.26-1.48.65.65,0,0,1,.61-.32c.08,0,.12,0,.12.16a12.63,12.63,0,0,1-.54,1.68,8.28,8.28,0,0,0-.55,2,.72.72,0,0,1-.19.59A.61.61,0,0,1,27.5,13.35Z"/></svg>