<svg id="レイヤー_1" data-name="レイヤー 1" xmlns="http://www.w3.org/2000/svg" viewBox="0 0 30 20"><defs><style>.cls-1{fill:#fff;}</style></defs><title>numlabel_5</title><path id="パス_15" data-name="パス 15" class="cls-1" d="M13.5,7.17A7.19,7.19,0,0,0,12.38,3,3.54,3.54,0,0,0,9.32,1.38,4,4,0,0,0,6.1,2.9,5.73,5.73,0,0,0,4.82,6.69,7.2,7.2,0,0,0,6,10.7a3.53,3.53,0,0,0,3.1,1.75,4.07,4.07,0,0,0,3.2-1.39A5.71,5.71,0,0,0,13.5,7.17ZM2.33,6.82a6.43,6.43,0,0,1,2-4.8,6.63,6.63,0,0,1,4.82-2A6.72,6.72,0,0,1,14,2a6.46,6.46,0,0,1,2,4.8,6.77,6.77,0,0,1-2,4.88,6.52,6.52,0,0,1-4.84,2A6.49,6.49,0,0,1,4.33,11.7,6.77,6.77,0,0,1,2.33,6.82ZM20.54,19.33c-.73,0-1.09-.12-1.09-.37s.35-.43,1.05-.56c3.08-.53,4.61-2.24,4.61-5.12q0-3.13-4.38-5.34c-1.07-.54-1.6-1.12-1.6-1.76a9.41,9.41,0,0,1,1-4,2.1,2.1,0,0,1,1.15-1.06A20.87,20.87,0,0,1,26,0h0c.23,0,.35.18.35.54a2.77,2.77,0,0,1-.51,1.38,1.87,1.87,0,0,1-1.12,1,23.26,23.26,0,0,1-3.9.42c-.21,0-.41.32-.58,1a.58.58,0,0,0,0,.19c0,.28.22.53.64.77a25.18,25.18,0,0,1,4.86,3.26,7.23,7.23,0,0,1,1.37,1.92,5,5,0,0,1,.61,2.34,5.86,5.86,0,0,1-2.25,4.75A7.61,7.61,0,0,1,20.54,19.33Z"/></svg>