<svg id="レイヤー_1" data-name="レイヤー 1" xmlns="http://www.w3.org/2000/svg" viewBox="0 0 30 20"><defs><style>.cls-1{fill:#fff;}</style></defs><title>numlabel_1</title><path id="パス_11" data-name="パス 11" class="cls-1" d="M13.46,7.1a7.21,7.21,0,0,0-1.12-4.16A3.54,3.54,0,0,0,9.28,1.32,4,4,0,0,0,6.06,2.84,5.71,5.71,0,0,0,4.78,6.63a7.2,7.2,0,0,0,1.14,4A3.5,3.5,0,0,0,9,12.38,4.07,4.07,0,0,0,12.22,11,5.68,5.68,0,0,0,13.46,7.1ZM2.29,6.75a6.44,6.44,0,0,1,2-4.8A6.63,6.63,0,0,1,9.11,0a6.64,6.64,0,0,1,4.83,2,6.44,6.44,0,0,1,2,4.8,6.77,6.77,0,0,1-2,4.88,6.56,6.56,0,0,1-4.84,2,6.5,6.5,0,0,1-4.83-2.07A6.77,6.77,0,0,1,2.29,6.75Zm19.62,6.4-3.53.17c-.23,0-.35-.14-.35-.4s.12-.4.35-.4c1.14-.09,1.84-.32,2.12-.7a1.33,1.33,0,0,0,.22-.77V2.57a1.34,1.34,0,0,0-.42-1.15,1.15,1.15,0,0,0-.57-.29l-.32-.07a5.69,5.69,0,0,0-.7-.12c-.15,0-.23-.12-.23-.36s.08-.35.23-.35l3.2.1L25,.23c.17,0,.25.11.25.32A.34.34,0,0,1,25,.94L24.58,1a2.4,2.4,0,0,0-.48.1,3.2,3.2,0,0,0-.39.16.78.78,0,0,0-.33.24A2.26,2.26,0,0,0,23,2.86c0,.62,0,2,0,4.13s0,3.44,0,3.93a1.34,1.34,0,0,0,.37,1,1.49,1.49,0,0,0,.65.36c.2,0,.63.11,1.27.2a.39.39,0,0,1,.38.41v0a.34.34,0,0,1-.38.37Z"/></svg>