<svg id="レイヤー_1" data-name="レイヤー 1" xmlns="http://www.w3.org/2000/svg" viewBox="0 0 30 20"><defs><style>.cls-1{fill:#fff;}</style></defs><title>numlabel_4</title><path id="パス_14" data-name="パス 14" class="cls-1" d="M11.26,7.36A7.19,7.19,0,0,0,10.14,3.2,3.54,3.54,0,0,0,7.08,1.57,4,4,0,0,0,3.86,3.09,5.75,5.75,0,0,0,2.58,6.88a7.25,7.25,0,0,0,1.14,4,3.54,3.54,0,0,0,3.1,1.74A4.07,4.07,0,0,0,10,11.25,5.71,5.71,0,0,0,11.26,7.36ZM.09,7a6.44,6.44,0,0,1,2-4.8A6.63,6.63,0,0,1,6.91.26a6.67,6.67,0,0,1,4.83,2,6.46,6.46,0,0,1,2,4.8,6.75,6.75,0,0,1-2,4.88,6.48,6.48,0,0,1-4.84,2,6.46,6.46,0,0,1-4.83-2.06A6.77,6.77,0,0,1,.09,7Zm23.45,3.13c.26,0,.39-.08.39-.25V4.48s0-.07-.13-.08a.19.19,0,0,0-.19,0c-1.15,1.17-2.78,3-4.87,5.41-.12.19-.12.28,0,.28Zm-.09,1.73-7.33.23q-.42,0-.42-.15a2.23,2.23,0,0,1,.5-.72L25,1.41l.48-.58c.42-.55.68-.83.77-.83h0c.06,0,.1.13.1.38L26.24,10c0,.13.11.2.32.21l1,0c.43,0,1.11,0,2.05-.07.23,0,.35.08.35.23a2.07,2.07,0,0,1-.26.9c-.17.34-.31.51-.41.51l-1.57,0c-.94,0-1.41.08-1.41.25v5.73q0,.51-.78,1a2.59,2.59,0,0,1-1.07.51c-.32,0-.48-.13-.48-.41V12.16c0-.09-.07-.15-.21-.21A1.47,1.47,0,0,0,23.45,11.87Z"/></svg>